<?xml version="1.0" encoding="utf-8"?>
<!-- Generator: Adobe Illustrator 24.0.1, SVG Export Plug-In . SVG Version: 6.00 Build 0)  -->
<svg version="1.1" id="Layer_2" xmlns="http://www.w3.org/2000/svg" xmlns:xlink="http://www.w3.org/1999/xlink" x="0px" y="0px"
	 viewBox="0 0 120.7 71.7" style="enable-background:new 0 0 120.7 71.7;" xml:space="preserve">
<style type="text/css">
	.st0{fill:#0268B5;}
</style>
<g>
	<rect x="5.1" y="15" class="st0" width="8.2" height="8.2"/>
	<path d="M13.1,57.6V28.1H5.3v29.4L13.1,57.6L13.1,57.6z M64.5,57.9v-7.2c-1.1,0-2.1-0.1-2.8-0.2c-0.8-0.1-1.4-0.4-1.8-0.8
		c-0.4-0.4-0.7-1-0.8-1.8c-0.1-0.7-0.2-1.7-0.2-2.8V34.8h5.6v-6.7h-5.6V16.7h-7.8v28.4c0,2.4,0.2,4.4,0.6,6.1
		c0.4,1.6,1.1,2.9,2.1,3.9c1,1,2.2,1.7,3.8,2.1c1.6,0.4,3.5,0.6,5.9,0.6L64.5,57.9L64.5,57.9z M108.9,57.6V14.4h-7.8v43.2H108.9z
		 M43.6,31c-2.2-2.3-5.2-3.5-9-3.5c-1.9,0-3.6,0.4-5.1,1.1c-1.5,0.8-2.8,1.8-3.9,3.1l-0.4,0.6v-0.5v-3.7h-7.6v29.4h7.7V41.9v1.1
		c0-0.2,0-0.3,0-0.5c0.1-2.8,0.8-4.8,2-6.1c1.4-1.4,3-2.1,4.9-2.1c2.2,0,4,0.7,5.1,2c1.1,1.3,1.7,3.2,1.7,5.6l0,0V42l0,0l0,0v15.5
		h7.8V40.9C46.9,36.7,45.8,33.4,43.6,31z M97.1,42.8c0-2.1-0.4-4.1-1.1-6c-0.8-1.8-1.8-3.5-3.1-4.9c-1.3-1.4-2.9-2.5-4.8-3.3
		c-1.9-0.8-3.9-1.2-6.2-1.2c-2.1,0-4.1,0.4-6,1.2c-1.9,0.8-3.5,1.9-4.9,3.3c-1.4,1.4-2.5,3-3.3,4.9c-0.8,1.9-1.2,3.9-1.2,6
		s0.4,4.1,1.1,6c0.8,1.9,1.8,3.5,3.2,4.9c1.3,1.4,3,2.5,4.9,3.3c1.9,0.8,4,1.2,6.3,1.2c6.6,0,10.6-3,13.1-5.8l-5.6-4.2
		c-1.2,1.4-4,3.3-7.4,3.3c-2.2,0-4-0.5-5.3-1.5c-1.4-1-2.3-2.4-2.8-4.1L74,45.6h23.1L97.1,42.8L97.1,42.8z M74,40.1
		c0-2.2,2.5-5.9,7.8-5.9c5.3,0,7.8,3.7,7.8,5.9L74,40.1z M117.7,53.8c-0.1-0.3-0.3-0.6-0.6-0.9c-0.3-0.3-0.6-0.5-0.9-0.6
		s-0.7-0.2-1.1-0.2c-0.4,0-0.8,0.1-1.1,0.2c-0.3,0.1-0.6,0.3-0.9,0.6c-0.3,0.3-0.5,0.6-0.6,0.9c-0.1,0.3-0.2,0.7-0.2,1.1
		c0,0.4,0.1,0.8,0.2,1.1s0.3,0.6,0.6,0.9c0.3,0.3,0.6,0.5,0.9,0.6c0.3,0.1,0.7,0.2,1.1,0.2c0.4,0,0.8-0.1,1.1-0.2
		c0.3-0.1,0.6-0.3,0.9-0.6c0.3-0.3,0.5-0.6,0.6-0.9c0.1-0.3,0.2-0.7,0.2-1.1S117.8,54.2,117.7,53.8z M117.2,55.9
		c-0.1,0.3-0.3,0.6-0.5,0.8c-0.2,0.2-0.5,0.4-0.8,0.5c-0.3,0.1-0.6,0.2-0.9,0.2c-0.3,0-0.6-0.1-0.9-0.2c-0.3-0.1-0.6-0.3-0.8-0.5
		s-0.4-0.5-0.5-0.8c-0.1-0.3-0.2-0.6-0.2-0.9c0-0.3,0.1-0.6,0.2-0.9s0.3-0.6,0.5-0.8c0.2-0.2,0.5-0.4,0.8-0.5s0.6-0.2,0.9-0.2
		c0.3,0,0.6,0.1,0.9,0.2c0.3,0.1,0.6,0.3,0.8,0.5c0.2,0.2,0.4,0.5,0.5,0.8c0.1,0.3,0.2,0.6,0.2,0.9
		C117.4,55.3,117.3,55.6,117.2,55.9z M115.6,55.2c0.2,0,0.4-0.1,0.6-0.3s0.2-0.3,0.2-0.6c0-0.3-0.1-0.6-0.3-0.7
		c-0.2-0.2-0.5-0.3-0.9-0.3h-1.3v3.3h0.6v-1.3h0.4l0.8,1.3h0.6L115.6,55.2z M115.3,54.7c-0.1,0-0.2,0-0.3,0h-0.4v-0.9h0.4
		c0.1,0,0.2,0,0.3,0c0.1,0,0.2,0,0.3,0.1c0.1,0,0.1,0.1,0.2,0.1c0.1,0.1,0.1,0.1,0.1,0.3s0,0.2-0.1,0.3c-0.1,0.1-0.1,0.1-0.2,0.1
		C115.5,54.7,115.4,54.7,115.3,54.7z"/>
</g>
<text transform="matrix(1 0 0 1 102.0989 -155.556)" style="font-family:'AdobeMingStd-Light-B5pc-H'; font-size:12px;">71.68</text>
</svg>
