<?xml version="1.0" encoding="utf-8"?>
<!-- Generator: Adobe Illustrator 24.0.1, SVG Export Plug-In . SVG Version: 6.00 Build 0)  -->
<svg version="1.1"
	 id="svg3064" xmlns:cc="http://creativecommons.org/ns#" xmlns:dc="http://purl.org/dc/elements/1.1/" xmlns:inkscape="http://www.inkscape.org/namespaces/inkscape" xmlns:rdf="http://www.w3.org/1999/02/22-rdf-syntax-ns#" xmlns:sodipodi="http://sodipodi.sourceforge.net/DTD/sodipodi-0.dtd" xmlns:svg="http://www.w3.org/2000/svg"
	 xmlns="http://www.w3.org/2000/svg" xmlns:xlink="http://www.w3.org/1999/xlink" x="0px" y="0px" viewBox="0 0 127.8 71.7"
	 style="enable-background:new 0 0 127.8 71.7;" xml:space="preserve">
<style type="text/css">
	.st0{fill:#006890;}
</style>
<defs>
	
		<inkscape:perspective  id="perspective3072" inkscape:persp3d-origin="372.04724 : 350.78739 : 1" inkscape:vp_x="0 : 526.18109 : 1" inkscape:vp_y="0 : 1000 : 0" inkscape:vp_z="744.09448 : 526.18109 : 1" sodipodi:type="inkscape:persp3d">
		</inkscape:perspective>
	
		<inkscape:perspective  id="perspective3058" inkscape:persp3d-origin="0.5 : 0.33333333 : 1" inkscape:vp_x="0 : 0.5 : 1" inkscape:vp_y="0 : 1000 : 0" inkscape:vp_z="1 : 0.5 : 1" sodipodi:type="inkscape:persp3d">
		</inkscape:perspective>
</defs>
<sodipodi:namedview  bordercolor="#666666" borderopacity="1.0" id="base" inkscape:current-layer="layer1" inkscape:cx="88.571429" inkscape:cy="25.714286" inkscape:document-units="px" inkscape:pageopacity="0.0" inkscape:pageshadow="2" inkscape:window-height="678" inkscape:window-maximized="1" inkscape:window-width="1024" inkscape:window-x="-4" inkscape:window-y="-4" inkscape:zoom="4.3702703" pagecolor="#ffffff" showgrid="false">
	</sodipodi:namedview>
<g id="layer1" transform="translate(-208.56036,-465.02647)" inkscape:groupmode="layer" inkscape:label="Layer 1">
	<g id="g242" transform="matrix(1.25,0,0,-1.25,355.30814,514.22237)">
		<path id="path244" class="st0" d="M-35.2,0.7c-4.8,0-5.9,5.5-5.9,10.1c0,4.6,1,10.1,5.9,10.1c4.8,0,5.9-5.5,5.9-10.1
			C-29.4,6.1-30.4,0.7-35.2,0.7 M-35.2,27.9c-7.6,0-14.4-3.4-16.8-10.9h-0.3v9.6h-11.6V9c0-4.3-1.2-6.3-4.6-6.3C-72,2.6-73,4.8-73,9
			v17.6h-11.4V10.2c0-0.6,0-1.2,0.1-1.8l-0.2-0.1l-7.5,18.3h-11.4l-13.8-33.7h12.8l6.6,20.5h0.2h0h0.1l6.6-20.5h12.8l-2.4,5.9
			l0.2,0.1c2.6-2.3,6.7-3.2,12.1-3.2c9.6,0,14.5,2.8,15.8,10.1h0.2c1.9-8.5,9.1-12.3,17.1-12.3c9.5,0,17.7,5.2,17.7,17.2
			C-17.6,22.7-25.7,27.9-35.2,27.9"/>
	</g>
</g>
</svg>
