<?xml version="1.0" encoding="utf-8"?>
<!-- Generator: Adobe Illustrator 24.0.1, SVG Export Plug-In . SVG Version: 6.00 Build 0)  -->
<svg version="1.1" id="Layer_1" xmlns="http://www.w3.org/2000/svg" xmlns:xlink="http://www.w3.org/1999/xlink" x="0px" y="0px"
	 viewBox="0 0 739 289" style="enable-background:new 0 0 739 289;" xml:space="preserve">
<style type="text/css">
	.st0{fill:#293133;}
	.st1{fill:#7F8385;}
	.st2{fill:#D03439;}
</style>
<g>
	<path class="st0" d="M265.4,110.6H264h-21.2L201.8,178h24.5c0,0,24.3-42.7,27.8-48.8c3.5,6.1,28,48.8,28,48.8h24.4L265.4,110.6z"/>
	<polygon class="st1" points="242.7,153.8 265.6,153.8 254.1,170.4 	"/>
	<path class="st0" d="M355.2,110.6h-37.9h-2.3V178h40.2c39,0,47.2-18.4,47.2-33.8C402.4,128.9,394.2,110.6,355.2,110.6z
		 M337.4,123.8c3.1,0,10.4,0,10.4,0c21.7,0.4,31.2,2.4,31.2,20.4c0,18.2-9,20.2-31.2,20.6c0,0-7.3,0-10.4,0
		C337.4,160.8,337.4,127.8,337.4,123.8z"/>
	<path class="st0" d="M432.9,164.3c0-4.3,0-53.7,0-53.7h-2.3h-20.3V178h74v-13.8C484.2,164.3,437.2,164.3,432.9,164.3z"/>
	<polygon class="st0" points="514.1,110.6 493.8,110.6 493.8,178 516.4,178 516.4,110.6 	"/>
	<polygon class="st0" points="640.7,110.6 620.2,110.6 620.2,178 643,178 643,110.6 	"/>
	<path class="st0" d="M588,110.6c0,0,0,32.2,0,41c-6.6-6.8-39.4-41-39.4-41h-0.8h-18.2h-2.3V178h21.2c0,0,0-32.3,0-41.1
		c6.6,6.9,39.4,41.1,39.4,41.1h21.5v-67.4H588z"/>
	<path class="st0" d="M670.7,138.7c4.1-2.9,39.2-28.1,39.2-28.1h-7.3h-21.8l-36.3,29l37.8,38.4h31.2
		C713.5,178,674.5,142.2,670.7,138.7z"/>
</g>
<g>
	<g>
		<path class="st2" d="M25.6,215.8c42.3-40.5,93.8-40.5,136.3,0l-28.1-58.9l-84.3,8.5L25.6,215.8z"/>
		<polygon class="st2" points="54.3,155.5 133,155.5 127,142.7 56.3,151.3 		"/>
		<polygon class="st2" points="61.1,141 126.2,141 120.4,128.7 63.2,136.8 		"/>
		<polygon class="st2" points="68,126.6 119.4,126.6 93.7,72.8 		"/>
	</g>
	<g>
		<path class="st0" d="M161.9,206.3c0,5.2,4.3,9.5,9.5,9.5c5.2,0,9.5-4.3,9.5-9.5c0-5.2-4.3-9.5-9.5-9.5
			C166.2,196.8,161.9,201.1,161.9,206.3z M163.4,206.3c0-4.4,3.6-8,8-8c4.4,0,8,3.6,8,8c0,4.4-3.6,8-8,8
			C167,214.3,163.4,210.7,163.4,206.3z"/>
		<path class="st0" d="M167.6,211.5v-10h4.2c1.1,0,1.8,0.1,2.3,0.3c0.5,0.2,0.9,0.5,1.2,0.9c0.3,0.5,0.4,1,0.4,1.6
			c0,0.7-0.2,1.4-0.6,1.8c-0.4,0.5-1.1,0.8-2,0.9c0.4,0.2,0.8,0.5,1.1,0.8c0.3,0.3,0.7,0.8,1.1,1.6l1.2,1.9h-2.4l-1.5-2.2
			c-0.5-0.8-0.9-1.3-1.1-1.5c-0.2-0.2-0.4-0.3-0.6-0.4c-0.2-0.1-0.5-0.1-1-0.1h-0.4v4.2H167.6z M169.6,205.7h1.5c1,0,1.6,0,1.8-0.1
			c0.2-0.1,0.4-0.2,0.6-0.4c0.1-0.2,0.2-0.4,0.2-0.7c0-0.3-0.1-0.6-0.3-0.8c-0.2-0.2-0.4-0.3-0.8-0.4c-0.2,0-0.7,0-1.5,0h-1.6V205.7
			z"/>
	</g>
</g>
</svg>
