<?xml version="1.0" encoding="utf-8"?>
<!-- Generator: Adobe Illustrator 24.0.1, SVG Export Plug-In . SVG Version: 6.00 Build 0)  -->
<svg version="1.1" id="Layer_1" xmlns="http://www.w3.org/2000/svg" xmlns:xlink="http://www.w3.org/1999/xlink" x="0px" y="0px"
	 viewBox="0 0 200 71.7" style="enable-background:new 0 0 200 71.7;" xml:space="preserve">
<style type="text/css">
	.st0{fill:#293133;}
	.st1{fill:#7F8385;}
	.st2{fill:#D03439;}
</style>
<g>
	<g>
		<path class="st0" d="M69.8,26.6h-0.4h-6.1L51.4,46.1h7.1c0,0,7-12.4,8-14.1c1,1.8,8.1,14.1,8.1,14.1h7.1L69.8,26.6z"/>
		<polygon class="st1" points="63.3,39.1 69.9,39.1 66.6,43.9 		"/>
		<path class="st0" d="M95.8,26.6h-11h-0.7v19.5h11.6c11.3,0,13.7-5.3,13.7-9.8C109.5,31.9,107.1,26.6,95.8,26.6z M90.7,30.4
			c0.9,0,3,0,3,0c6.3,0.1,9,0.7,9,5.9c0,5.3-2.6,5.8-9,6c0,0-2.1,0-3,0C90.7,41.1,90.7,31.6,90.7,30.4z"/>
		<path class="st0" d="M118.3,42.2c0-1.2,0-15.5,0-15.5h-0.7h-5.9v19.5h21.4v-4C133.2,42.2,119.6,42.2,118.3,42.2z"/>
		<polygon class="st0" points="141.9,26.6 136,26.6 136,46.1 142.5,46.1 142.5,26.6 		"/>
		<polygon class="st0" points="178.5,26.6 172.6,26.6 172.6,46.1 179.2,46.1 179.2,26.6 		"/>
		<path class="st0" d="M163.2,26.6c0,0,0,9.3,0,11.9c-1.9-2-11.4-11.9-11.4-11.9h-0.2h-5.3h-0.7v19.5h6.1c0,0,0-9.4,0-11.9
			c1.9,2,11.4,11.9,11.4,11.9h6.2V26.6H163.2z"/>
		<path class="st0" d="M187.2,34.7c1.2-0.8,11.3-8.1,11.3-8.1h-2.1h-6.3L179.6,35l10.9,11.1h9C199.6,46.1,188.3,35.8,187.2,34.7z"/>
	</g>
	<g>
		<g>
			<path class="st2" d="M0.4,57.1c12.2-11.7,27.2-11.7,39.5,0L31.7,40L7.3,42.5L0.4,57.1z"/>
			<polygon class="st2" points="8.7,39.6 31.5,39.6 29.8,35.9 9.3,38.4 			"/>
			<polygon class="st2" points="10.7,35.4 29.5,35.4 27.9,31.9 11.3,34.2 			"/>
			<polygon class="st2" points="12.7,31.2 27.6,31.2 20.1,15.7 			"/>
		</g>
		<g>
			<path class="st0" d="M39.9,54.3c0,1.5,1.2,2.8,2.8,2.8s2.8-1.2,2.8-2.8s-1.2-2.8-2.8-2.8S39.9,52.8,39.9,54.3z M40.3,54.3
				c0-1.3,1-2.3,2.3-2.3c1.3,0,2.3,1,2.3,2.3s-1,2.3-2.3,2.3C41.4,56.6,40.3,55.6,40.3,54.3z"/>
			<path class="st0" d="M41.5,55.8v-2.9h1.2c0.3,0,0.5,0,0.7,0.1c0.1,0.1,0.3,0.1,0.3,0.3c0.1,0.1,0.1,0.3,0.1,0.5
				c0,0.2-0.1,0.4-0.2,0.5c-0.1,0.1-0.3,0.2-0.6,0.3c0.1,0.1,0.2,0.1,0.3,0.2s0.2,0.2,0.3,0.5l0.3,0.6h-0.7L43,55.1
				c-0.1-0.2-0.3-0.4-0.3-0.4s-0.1-0.1-0.2-0.1c-0.1,0-0.1,0-0.3,0h-0.1v1.2L41.5,55.8L41.5,55.8z M42.1,54.1h0.4c0.3,0,0.5,0,0.5,0
				c0.1,0,0.1-0.1,0.2-0.1c0-0.1,0.1-0.1,0.1-0.2s0-0.2-0.1-0.2c-0.1-0.1-0.1-0.1-0.2-0.1c-0.1,0-0.2,0-0.4,0h-0.5L42.1,54.1
				L42.1,54.1z"/>
		</g>
	</g>
</g>
</svg>
